<?xml version="1.0" standalone="no"?>
<!DOCTYPE svg PUBLIC "-//W3C//DTD SVG 20010904//EN"
 "http://www.w3.org/TR/2001/REC-SVG-20010904/DTD/svg10.dtd">
<svg version="1.0" xmlns="http://www.w3.org/2000/svg"
 width="621.000000pt" height="621.000000pt" viewBox="0 0 621.000000 621.000000"
 preserveAspectRatio="xMidYMid meet">
<metadata>
Created by potrace 1.11, written by Peter Selinger 2001-2013
</metadata>
<g transform="translate(0.000000,621.000000) scale(0.100000,-0.100000)"
fill="#000000" stroke="none">
<path d="M0 3105 l0 -3105 3105 0 3105 0 0 3105 0 3105 -3105 0 -3105 0 0
-3105z m3535 2646 c297 -46 559 -131 828 -269 222 -113 443 -264 601 -413 34
-31 73 -67 87 -80 30 -28 165 -179 228 -256 153 -188 354 -555 429 -787 103
-315 140 -514 149 -816 9 -300 -19 -547 -91 -811 -209 -760 -722 -1384 -1430
-1736 -274 -137 -532 -217 -851 -265 -123 -18 -608 -18 -730 1 -564 85 -1053
309 -1450 665 -159 142 -258 248 -368 394 -281 371 -459 792 -532 1262 -36
226 -31 616 11 865 109 647 462 1250 977 1666 385 311 867 521 1337 583 180
24 181 24 435 21 179 -2 273 -8 370 -24z"/>
<path d="M2872 5355 c-667 -80 -1231 -404 -1622 -930 -304 -408 -454 -868
-454 -1390 0 -370 74 -692 233 -1016 278 -565 763 -992 1348 -1185 265 -88
459 -118 743 -118 526 0 983 152 1404 469 358 270 635 645 786 1066 250 694
156 1464 -253 2079 -321 481 -809 826 -1377 970 -230 59 -582 83 -808 55z
m1248 -799 c164 -51 266 -143 322 -293 44 -118 48 -150 48 -436 0 -304 -11
-374 -71 -469 -34 -53 -102 -119 -148 -142 -17 -9 -31 -20 -31 -24 0 -4 26
-21 58 -39 83 -45 137 -101 172 -175 58 -124 60 -142 60 -583 0 -423 -2 -443
-47 -565 -47 -127 -111 -199 -230 -259 -138 -69 -90 -66 -1183 -64 -611 1
-1016 5 -1067 12 -181 23 -321 119 -390 268 -56 122 -65 186 -67 468 l-1 250
318 3 317 2 0 -225 c0 -324 1 -325 220 -325 99 0 138 4 161 16 61 31 59 -15
59 1114 l0 1030 -345 0 -345 0 0 225 0 225 1073 0 c890 0 1080 -3 1117 -14z"/>
<path d="M3355 4117 c-3 -6 -4 -190 -3 -407 l3 -395 197 0 198 0 27 28 28 27
3 335 c3 366 0 389 -54 414 -37 16 -393 15 -399 -2z"/>
<path d="M3355 2828 c-3 -7 -4 -204 -3 -438 l3 -425 212 -3 212 -2 33 29 33
29 3 364 c2 332 1 366 -15 398 -10 19 -29 40 -43 47 -36 18 -429 18 -435 1z"/>
</g>
</svg>
